# xmcd CD database file
#
# Track frame offsets:
#	150
#	13934
#	26864
#	44068
#	57107
#	71412
#	86659
#	102098
#	119076
#	131802
#	147739
#	162937
#	176854
#	195218
#	212156
#	228639
#	253681
#
# Disc length: 3547 seconds
#
# Revision: 0
# Processed by: cddbd v1.5.2PL0 Copyright (c) Steve Scherf et al.
# Submitted via: CDex 1.70beta2
#
DISCID=070dd911
DTITLE=RABAUE - HEUTE FEIERN WIR
DYEAR=2012
DGENRE=Stimmung
TTITLE0=Denn heute feiern wir ( Hochdeutsch-Kölsche Version )
TTITLE1=Kumm loss mr singe
TTITLE2=Ich liebe das Leben
TTITLE3=La la Lied
TTITLE4=Hallo wie geht es dir
TTITLE5=Einkaufen gehn
TTITLE6=1:0 für Kölle
TTITLE7=Könnt ich die Zeit
TTITLE8=Steig in mein Wohnmobil
TTITLE9=Insellied  (Version 2011)
TTITLE10=Die Jässjer en unserem Kölle
TTITLE11=Schokolädchen ( kölsche version )
TTITLE12=Wir rocken durch das Zillertal (Domstürmer feat.Rabaue)
TTITLE13=Nastrowje (Rabaue feat.DJ Paradiso)
TTITLE14=Immer Ärger mit Gerda  (Live Version Konzert 2011)
TTITLE15=Beach Boys Medley
TTITLE16=Wir alle sind Engel (Live Version Konzert 2011)
EXTD=YEAR: 2012
EXTT0=
EXTT1=
EXTT2=
EXTT3=
EXTT4=
EXTT5=
EXTT6=
EXTT7=
EXTT8=
EXTT9=
EXTT10=
EXTT11=
EXTT12=
EXTT13=
EXTT14=
EXTT15=
EXTT16=
PLAYORDER=
